<?xml version="1.0" encoding="UTF-8"?>
<svg id="Layer_2" data-name="Layer 2" xmlns="http://www.w3.org/2000/svg" viewBox="0 0 1187.22 151.85">
  <defs>
    <style>
      .cls-1, .cls-2 {
        stroke-linecap: round;
        stroke-linejoin: round;
      }

      .cls-1, .cls-2, .cls-3 {
        stroke: #000;
      }

      .cls-4 {
        stroke: #b5b5b5;
      }

      .cls-4, .cls-3 {
        fill: none;
        stroke-miterlimit: 10;
      }

      .cls-2 {
        stroke-width: .5px;
      }
    </style>
  </defs>
  <rect class="cls-3" x="13.46" y=".5" width="1173.26" height="150.85"/>
  <line class="cls-4" x1="811.26" y1=".5" x2="811.26" y2="151.35"/>
  <line class="cls-4" x1="412.36" y1=".5" x2="412.36" y2="151.35"/>
  <path class="cls-3" d="M329.66,9.63H53.52c-14.03,0-25.41,11.38-25.41,25.41h0c0,11.26,7.33,20.81,17.48,24.14,0,0,0,0,0,0,0,0-9.24,8.52-22.51,10.63,0,0,17.22,1.04,40.09-9.36h266.49c14.03,0,25.41-11.38,25.41-25.41h0c0-14.03-11.38-25.41-25.41-25.41Z"/>
  <path class="cls-2" d="M655.4,23.72s.2,17.12-14.91,17.92c0,0,14.78-1.56,14.91,16.44,0,0-1.05-16.51,14.52-16.48,0,0-13.66.49-14.52-17.89Z"/>
  <rect class="cls-1" x=".5" y=".5" width="12.96" height="150.85"/>
</svg>