<?xml version="1.0" encoding="UTF-8"?>
<svg id="Layer_2" xmlns="http://www.w3.org/2000/svg" version="1.1" viewBox="0 0 647.2 259.2">
  <!-- Generator: Adobe Illustrator 29.6.1, SVG Export Plug-In . SVG Version: 2.1.1 Build 9)  -->
  <defs>
    <style>
      .st0 {
        font-family: ArialMT, Arial;
        font-size: 130px;
      }

      .st1 {
        fill: none;
        stroke: #000;
        stroke-miterlimit: 10;
      }
    </style>
  </defs>
  <g>
    <path class="st1" d="M61.2,108.4l1.7,10.1c-3.2.7-6.1,1-8.6,1-4.1,0-7.4-.7-9.6-2s-3.9-3-4.8-5.2c-.9-2.1-1.4-6.6-1.4-13.5v-38.8h-8.4v-8.9h8.4v-16.7l11.4-6.9v23.5h11.5v8.9h-11.5v39.4c0,3.3.2,5.4.6,6.3.4.9,1.1,1.7,2,2.2.9.6,2.2.8,3.9.8s2.9-.1,5-.4Z"/>
    <path class="st1" d="M72.4,118.6V25.6h11.4v33.4c5.3-6.2,12.1-9.3,20.2-9.3s9.3,1,13,3c3.7,2,6.3,4.7,7.9,8.2,1.6,3.5,2.4,8.5,2.4,15.1v42.7h-11.4v-42.7c0-5.7-1.2-9.9-3.7-12.5-2.5-2.6-6-3.9-10.5-3.9s-6.6.9-9.6,2.6c-3,1.8-5.1,4.1-6.4,7.1-1.3,3-1.9,7.2-1.9,12.4v36.9h-11.4Z"/>
    <path class="st1" d="M190.8,96.9l11.8,1.5c-1.9,6.9-5.3,12.3-10.3,16.1s-11.5,5.7-19.3,5.7-17.7-3-23.5-9.1c-5.8-6.1-8.7-14.6-8.7-25.5s2.9-20.1,8.8-26.4c5.8-6.3,13.4-9.4,22.7-9.4s16.4,3.1,22.1,9.2c5.7,6.1,8.6,14.8,8.6,25.9s0,1.7,0,3h-50.3c.4,7.4,2.5,13.1,6.3,17,3.8,3.9,8.5,5.9,14.1,5.9s7.8-1.1,10.7-3.3c3-2.2,5.3-5.7,7-10.5ZM153.3,78.4h37.6c-.5-5.7-1.9-9.9-4.3-12.8-3.6-4.4-8.4-6.6-14.2-6.6s-9.7,1.8-13.2,5.3c-3.6,3.5-5.6,8.2-5.9,14.1Z"/>
    <path class="st1" d="M265.5,118.6l-20.6-67.4h11.8l10.7,38.9,4,14.5c.2-.7,1.3-5.4,3.5-13.9l10.7-39.5h11.7l10.1,39.1,3.4,12.9,3.9-13,11.6-39h11.1l-21.1,67.4h-11.9l-10.7-40.4-2.6-11.5-13.6,51.9h-11.9Z"/>
    <path class="st1" d="M342.7,84.9c0-12.5,3.5-21.7,10.4-27.7,5.8-5,12.9-7.5,21.2-7.5s16.8,3,22.7,9.1,8.8,14.5,8.8,25.2-1.3,15.5-3.9,20.5c-2.6,5-6.4,8.8-11.4,11.6-5,2.8-10.4,4.1-16.3,4.1-9.4,0-17.1-3-22.9-9.1-5.8-6.1-8.7-14.8-8.7-26.2ZM354.5,84.9c0,8.6,1.9,15.1,5.6,19.4,3.8,4.3,8.5,6.4,14.2,6.4s10.4-2.2,14.2-6.5c3.8-4.3,5.6-10.9,5.6-19.7s-1.9-14.7-5.7-18.9c-3.8-4.3-8.5-6.4-14.1-6.4s-10.5,2.1-14.2,6.4c-3.8,4.3-5.6,10.7-5.6,19.4Z"/>
    <path class="st1" d="M419.2,118.6V51.2h10.3v10.2c2.6-4.8,5-7.9,7.3-9.5s4.7-2.3,7.3-2.3c3.9,0,7.8,1.2,11.7,3.7l-3.9,10.6c-2.8-1.7-5.6-2.5-8.4-2.5s-4.7.8-6.7,2.3c-2,1.5-3.4,3.6-4.3,6.3-1.3,4.1-1.9,8.5-1.9,13.3v35.3h-11.4Z"/>
    <path class="st1" d="M462.3,118.6V25.6h11.4v93.1h-11.4Z"/>
    <path class="st1" d="M535.2,118.6v-8.5c-4.3,6.7-10.6,10-18.9,10s-10.3-1.5-14.8-4.4c-4.5-3-8-7.1-10.5-12.4-2.5-5.3-3.7-11.4-3.7-18.3s1.1-12.8,3.4-18.3c2.2-5.5,5.6-9.7,10.1-12.6,4.5-2.9,9.5-4.4,15-4.4s7.7.9,10.9,2.6c3.2,1.7,5.8,3.9,7.7,6.7V25.6h11.4v93.1h-10.6ZM499.1,85c0,8.6,1.8,15.1,5.5,19.4,3.6,4.3,7.9,6.4,12.9,6.4s9.2-2,12.7-6.1c3.5-4.1,5.2-10.3,5.2-18.7s-1.8-16-5.3-20.3-7.9-6.5-13.1-6.5-9.3,2.1-12.7,6.2c-3.4,4.1-5.1,10.7-5.1,19.6Z"/>
    <path class="st1" d="M585.2,95.7c0-1.5,0-2.7,0-3.4,0-4.5.6-8.4,1.9-11.6.9-2.5,2.4-4.9,4.5-7.4,1.5-1.8,4.3-4.5,8.2-8,4-3.5,6.5-6.3,7.7-8.3,1.2-2.1,1.8-4.3,1.8-6.8,0-4.4-1.7-8.3-5.2-11.7-3.5-3.4-7.7-5-12.8-5s-8.9,1.5-12.2,4.6c-3.3,3-5.4,7.8-6.4,14.3l-11.7-1.4c1.1-8.7,4.2-15.3,9.4-19.9,5.2-4.6,12.1-6.9,20.7-6.9s16.4,2.5,21.8,7.4c5.4,5,8.1,10.9,8.1,18s-1,7.8-2.9,11.2-5.6,7.6-11.2,12.5c-3.7,3.3-6.2,5.7-7.3,7.3-1.1,1.6-2,3.4-2.5,5.4-.6,2-.9,5.3-1,9.9h-11ZM584.5,118.6v-13h13v13h-13Z"/>
  </g>
  <text class="st0" transform="translate(27.7 223.7)"><tspan x="0" y="0">the world?</tspan></text>
</svg>