<?xml version="1.0" encoding="UTF-8"?>
<svg id="Layer_2" xmlns="http://www.w3.org/2000/svg" version="1.1" viewBox="0 0 647.2 259.2">
  <!-- Generator: Adobe Illustrator 29.6.1, SVG Export Plug-In . SVG Version: 2.1.1 Build 9)  -->
  <defs>
    <style>
      .st0 {
        font-family: Sail-Regular, Sail;
        font-size: 120px;
      }

      .st1 {
        fill: none;
        stroke: #000;
      }
    </style>
  </defs>
  <g>
    <path class="st1" d="M111.9,141.2c7.8,0,14.4-1.5,19.9-4.6l1.3,2.2c-5.2,3-10.9,4.7-17.2,4.9-5,4.8-9.3,12.8-12.8,24-3.5,11.2-5.2,23.1-5.2,35.8s1.4,13.2,4.3,16.4c2.8,3.2,6.2,4.8,10,4.8s5-.6,7.4-1.7c2.4-1.2,4.3-2.3,5.6-3.4,1.3-1.1,3.1-2.8,5.2-4.9-1.3-3.8-1.9-9.8-1.9-17.9s1.4-16.9,4.2-26.3c2.8-9.4,6.5-17.1,11.2-23.1,4.6-6,9.4-9,14.4-9s4.2.6,5.5,1.9c1.2,1.3,1.9,3.6,1.9,7,0,6.8-2.2,15.8-6.5,27.1-4.4,11.3-10,21.6-16.9,30.8.7,6.2,2.7,10.7,5.9,13.7,3.2,3,7.3,4.4,12.2,4.4,9.1,0,17.3-8.7,24.6-26.2,5.6-13.4,8.4-27.2,8.4-41.3s-2.7-23.8-8.2-29.3l1.8-1.8c6,6,9,16.5,9,31.4s-2.8,27.9-8.5,42c-9,21.6-21.2,32.4-36.6,32.4s-13.7-3.2-17.4-9.5c-1-1.6-1.6-2.8-2-3.6-8.5,8.7-17.8,13.1-28.1,13.1s-11.6-2.2-14.8-6.7c-3.2-4.4-4.9-9.8-4.9-16.1s.8-12.6,2.5-18.9c1.6-6.3,3.5-11.7,5.7-16.1,2.2-4.5,4.8-8.9,7.8-13.2,4.2-6.2,8.4-11.4,12.8-15.8-2.6,0-6.1-.3-10.3-.8-8.9-.5-13.6-.7-14.3-.7-11.2,0-20,2.8-26.4,8.5-6.4,5.6-9.6,13.4-9.6,23.3s1.1,9,3.2,13.1c1.1,2.2,3.6,4.6,7.3,7.4.8.6,2.1,1.3,3.8,2,1.8.7,2.7,1.1,2.8,1.1l2,.6-.4,2.5c-1.5,0-3.7-.8-6.6-2.4-2.9-1.6-5.3-3.3-7.4-5.1s-3.8-4.4-5.3-7.8c-1.5-3.4-2.2-7.2-2.2-11.5,0-10.6,3.5-18.9,10.4-25.1,7-6.2,16.4-9.3,28.2-9.3s9.2.3,13.2.8c4,.6,7.6.8,10.8.8ZM141.9,199.2v1.8c.8-1.1,1.8-2.7,3.1-4.8,5.2-8.1,9.5-16.8,12.8-26,3.4-9.3,5-16.9,5-22.9s-1.5-6.2-4.6-6.2-2.5.3-4,1c-2.6,2.5-5.2,7.4-7.7,14.8-3.2,9.4-4.8,23.6-4.8,42.5Z"/>
    <path class="st1" d="M248.5,211.3c1.9,0,3.9-1.1,6-3.4l1.8,1.4c-.6,1.1-1.8,2.1-3.7,3-1.9.9-4,1.3-6.4,1.3-7.3,0-10.9-3.3-10.9-9.8s.7-7.8,2.2-15c1.4-7.2,2.2-11.9,2.2-14.2,0-3.4-1.6-5.2-4.9-5.2s-5.3,1.8-7.9,5.5c-2.5,3.7-4.6,8.7-6.2,15l-4,22.6h-14.4l13.3-75.4c-2.4.2-4.4,1.4-6,3.4l-1.8-1.4c2.4-2.9,5.4-4.3,9.1-4.3s6.5.9,8.5,2.8c2,1.8,3,4.4,3,7.8s0,1.7-.2,3.1l-5,28.4c3.3-7.4,8.4-11,15.2-11s8.4,1.3,11,4c2.6,2.7,4,6.4,4,11.1s-.8,7.3-2.3,14.3c-1.5,7.1-2.4,12.4-2.5,15.9Z"/>
    <path class="st1" d="M266.7,209.1c-3.2-3.1-4.8-7-4.8-11.6s.4-8.7,1.3-12c.8-3.3,2.2-6.5,4.1-9.6,1.9-3.1,4.8-5.5,8.7-7.3,3.9-1.8,8.7-2.6,14.5-2.6s10.3,1.5,13.6,4.6c3.2,3.1,4.9,7.3,4.9,12.7,0,9.1-2.4,16.5-7.3,22.1-4.8,5.6-11.8,8.4-20.9,8.4s-10.8-1.5-14-4.6ZM275.5,201.3c0,6.4,1.9,9.6,5.6,9.6s7-3.2,10-9.7c2.9-6.4,4.4-14.1,4.4-23s-1.8-10.1-5.5-10.1-7,3.1-10,9.2-4.5,14.1-4.5,23.9Z"/>
    <path class="st1" d="M386.1,211.3c1.9,0,3.9-1.1,6-3.4l1.8,1.4c-.6,1.1-1.8,2.1-3.7,3-1.9.9-4,1.3-6.4,1.3-7.3,0-10.9-3.3-10.9-9.8s.7-7.8,2.2-15c1.4-7.2,2.2-11.9,2.2-14.2,0-3.4-1.6-5.2-4.9-5.2-5,0-9.1,6.4-12.5,19.1l-4.3,24h-14.4l7.9-44.3c-2.4.2-4.4,1.4-6,3.4l-1.8-1.4c2.4-2.9,5.4-4.3,9.1-4.3s6.5.9,8.5,2.8c2,1.8,3,4.4,3,7.8v.4c3.1-7.3,7.8-10.9,14.2-10.9s8,1.2,10.6,3.7c2.6,2.4,4,5.9,4.3,10.3,1.5-4.4,3.4-7.8,5.8-10.3,2.3-2.4,5.7-3.7,10.1-3.7s7.9,1.3,10.6,4c2.6,2.7,4,6.4,4,11.1s-.8,7.3-2.3,14.3c-1.5,7.1-2.4,12.4-2.5,15.9,1.9,0,3.9-1.1,6-3.4l1.8,1.4c-.6,1.1-1.8,2.1-3.7,3-1.9.9-4,1.3-6.4,1.3-7.3,0-10.9-3.3-10.9-9.8s.7-7.8,2.2-15c1.4-7.2,2.2-11.9,2.2-14.2,0-3.4-1.6-5.2-4.9-5.2-5.8,0-10.4,8.6-13.9,25.7-1.5,7.3-2.4,12.6-2.5,16.1Z"/>
    <path class="st1" d="M472.1,213.7c-7,0-10.9-3.1-11.5-9.2-3.5,6.2-8,9.2-13.3,9.2s-9.6-1.6-12.8-4.9c-3.2-3.2-4.7-7.8-4.7-13.6,0-9.1,2.2-16.3,6.7-21.5,4.5-5.2,10.3-7.8,17.4-7.8s9.7,2.8,11.6,8.3c.4-2.4.8-4.8,1.3-7.2,5.9,0,10.3-.2,13.2-.7l1.6-.4-8.3,45.4c2.4-.2,4.4-1.4,6-3.4l1.8,1.4c-2.4,2.9-5.4,4.3-9,4.3ZM444.7,208.8c.9,1.4,2.3,2.1,4.3,2.1s3.9-1,5.9-3.1c2.6-2.7,4.8-6.2,6.4-10.3.2-1,.7-3.5,1.4-7.5.7-4,1.3-7.2,1.7-9.8-.2-3-1.1-5.7-2.5-7.9-1.4-2.2-3.2-3.4-5.4-3.4-3.9,0-7.1,3.5-9.5,10.5-2.4,7-3.6,14.3-3.6,21.9s.5,6.1,1.4,7.5Z"/>
    <path class="st1" d="M529.5,213.7c-7,0-10.9-3-11.5-9-3.5,6-8,9-13.4,9s-9.6-1.5-12.5-4.6c-2.9-3.1-4.3-7.3-4.3-12.7,0-9.4,2.2-16.9,6.7-22.3,4.5-5.4,10.3-8.2,17.4-8.2s7.2,1.2,9.5,3.7c1,1.3,1.6,2.2,1.8,2.9l6.5-35.3c-2.4.2-4.4,1.4-6,3.4l-1.8-1.4c2.4-2.9,5.4-4.3,9.1-4.3s6.5.9,8.5,2.8c2,1.8,3,4.4,3,7.8s0,1.7-.2,3.1c-3.9,22-7.7,42.9-11.4,62.8,2.4-.2,4.4-1.4,6-3.4l1.8,1.4c-2.4,2.9-5.4,4.3-9,4.3ZM502.4,208.9c.8,1.4,2,2,3.6,2s3.2-.6,4.7-1.7c1.5-1.1,2.8-2.6,3.8-4.3,1.9-3,3.3-5.5,4.1-7.6l3.5-19c-.2-2.6-1-4.9-2.5-7-1.5-2.1-4.1-3.2-7.8-3.2s-5,3.8-7.2,11.3c-2.2,7.5-3.4,14.8-3.4,21.8s.4,6.2,1.1,7.6Z"/>
    <path class="st1" d="M571.5,165.9c10.2,0,15.2,4,15.2,12.1s-2.4,8.9-7.1,11.5c-4.8,2.6-11.5,3.9-20.3,4-.2,2.9-.2,5.2-.2,6.8,0,3.6.8,6.3,2.5,8,1.6,1.7,3.7,2.6,6.2,2.6s4.7-.5,6.8-1.4,3.7-2.1,4.9-3.4,2.2-2.7,3.1-4.1c1.6-2.6,2.4-4.3,2.4-5l2.2,1c-.2,1.3-1,3-2.2,5.1-1.2,2.1-2.5,3.9-4,5.2-1.4,1.4-3.6,2.6-6.4,3.8-2.8,1.2-5.9,1.7-9.4,1.7-6.5,0-11.4-1.5-14.7-4.6-3.3-3.1-5-7.3-5-12.7,0-9.5,2.4-17,7.1-22.4,4.7-5.4,11-8.1,19-8.1ZM581.4,171.5c-1.6-1.7-3.9-2.6-7-2.6s-6.1,1.8-9,5.5c-2.9,3.7-4.9,9.1-5.8,16.3,16.1,0,24.1-4.3,24.1-12.7s-.8-4.8-2.3-6.5Z"/>
  </g>
  <text class="st0" transform="translate(36.6 114)"><tspan x="0" y="0">Who made </tspan></text>
</svg>